<?xml version="1.0" encoding="UTF-8"?>
<svg id="Livello_2" data-name="Livello 2" xmlns="http://www.w3.org/2000/svg" viewBox="0 0 497.06 133.97">
  <defs>
    <style>
      .cls-1 {
        fill: #b2020c;
      }

      .cls-1, .cls-2, .cls-3 {
        stroke-width: 0px;
      }

      .cls-2 {
        fill: #99020a;
      }

      .cls-3 {
        fill: #002d62;
      }
    </style>
  </defs>
  <g id="Livello_1-2" data-name="Livello 1">
    <g>
      <g>
        <path class="cls-3" d="m39.29,82.16q-3.15,7.68-9.36,7.68h-6.5L0,29.18q11.13,0,14.18,8.57l15.76,44.41,15.95-44.41q3.05-8.57,14.18-8.57l-20.78,52.98Z"/>
        <path class="cls-3" d="m66.08,81.57V29.38q10.34,0,10.34,7.88v52.59q-10.34,0-10.34-8.27Z"/>
        <path class="cls-3" d="m120.15,37.94h-9.16v51.9q-10.14,0-10.14-8.37v-43.53h-17.33q0-8.57,7.58-8.57h37.32q0,8.57-8.27,8.57Z"/>
        <path class="cls-3" d="m246.51,89.84q-7.29,0-11.62-6.7l-27.18-41.26v47.96q-10.44,0-10.44-8.37V29.18h5.42q7.98,0,11.92,6.2l27.18,41.46v-40.37q0-7.29,10.44-7.29v60.66h-5.71Z"/>
        <path class="cls-3" d="m304.71,89.84h-15.26c-18.42,0-25.7-7.48-25.7-27.18V29.18q10.54,0,10.54,7.58v25.41c0,12.51,2.76,18.61,15.17,18.61h15.26V29.18q10.54,0,10.54,8.27v43.33q0,9.06-10.54,9.06Z"/>
        <path class="cls-3" d="m353.07,90.53c-23.24,0-28.75-14.38-28.75-30.92s5.61-31.02,28.75-31.02,28.85,14.48,28.85,31.12-5.41,30.82-28.85,30.82Zm0-53.28q-18.12,0-18.12,22.35c0,12.41,3.15,22.35,18.12,22.35q18.31,0,18.31-22.26c0-12.51-3.05-22.45-18.31-22.45Z"/>
        <path class="cls-3" d="m422.7,82.16q-3.15,7.68-9.36,7.68h-6.5l-23.44-60.66q11.13,0,14.18,8.57l15.76,44.41,15.95-44.41q3.05-8.57,14.18-8.57l-20.78,52.98Z"/>
        <path class="cls-3" d="m483.76,83.44l-1.97-5.42h-29.64l-1.97,5.42c-2.17,6.3-2.17,6.4-13.2,6.4l20.09-53.77c2.56-6.89,2.76-6.89,9.85-6.89h6.79l23.34,60.66q-10.93,0-13.3-6.4Zm-16.84-47.37l-12.21,34.37h24.42l-12.21-34.37Z"/>
        <path class="cls-1" d="m201.28,130.54c-1.53-5.05-37.52-123.7-38.68-126.75-1.36-3.58-4.38-3.68-4.36-3.67-3.02-.73-4.84,2-5.39,3.58l-26.71,94.9,9.28,2.17,22.67-78.66,34.31,111.86,9.09-2.72-.22-.72Z"/>
      </g>
      <g>
        <path class="cls-2" d="m219.41,123.8h-2.95v5.09q-2.5,0-2.5-2.09v-10.46q0-2.04,2.5-2.04h2.78c5.59,0,6.06,2.71,6.06,4.73s-.29,4.78-5.9,4.78Zm-.1-7.46h-2.85v5.47h2.92q3.35,0,3.35-2.78c0-1.24-.33-2.69-3.42-2.69Z"/>
        <path class="cls-2" d="m234.55,127.32l-3.78-4.3c-.52-.59-.33-1.64.59-1.64h1.76q3.38,0,3.38-2.57c0-1.14-.43-2.47-3.42-2.47h-2.81v12.55q-2.5,0-2.5-2.09v-10.46q0-2.04,2.5-2.04h2.69c5.52,0,6.09,2.64,6.09,4.52,0,3.61-2.62,4.47-5.4,4.47l5.9,5.61c-3.4,0-3.47.17-4.99-1.57Z"/>
        <path class="cls-2" d="m243.96,128.89q-2.47,0-2.47-2.09v-10.44q0-2.07,2.47-2.07h5.61q2.07,0,2.07,2.07h-7.68v4.07h4.94q2.02,0,2.02,2.02h-6.96v4.35h5.44q2.24,0,2.24,2.09h-7.68Z"/>
        <path class="cls-2" d="m261.84,127.03q-.76,1.85-2.26,1.85h-1.57l-5.66-14.64q2.69,0,3.42,2.07l3.8,10.72,3.85-10.72q.74-2.07,3.42-2.07l-5.02,12.79Z"/>
        <path class="cls-2" d="m268.3,126.89v-12.6q2.5,0,2.5,1.9v12.7q-2.5,0-2.5-2Z"/>
        <path class="cls-2" d="m279.09,128.91h-2.85q-2.47,0-2.47-2.02v-10.56q0-2.04,2.47-2.04h3.09c4.38,0,6.66,2.52,6.66,7.2s-2.47,7.42-6.89,7.42Zm-.31-12.58h-2.54v10.56h2.4q4.9,0,4.9-5.42c0-3.97-1.57-5.14-4.75-5.14Z"/>
        <path class="cls-2" d="m290.83,128.89q-2.47,0-2.47-2.09v-10.44q0-2.07,2.47-2.07h5.61q2.07,0,2.07,2.07h-7.68v4.07h4.94q2.02,0,2.02,2.02h-6.96v4.35h5.44q2.24,0,2.24,2.09h-7.68Z"/>
        <path class="cls-2" d="m312.8,128.89q-1.76,0-2.81-1.62l-6.56-9.96v11.58q-2.52,0-2.52-2.02v-12.62h1.31q1.92,0,2.88,1.5l6.56,10.01v-9.75q0-1.76,2.52-1.76v14.64h-1.38Z"/>
        <path class="cls-2" d="m316.55,128.89c0-2.42.02-2.4.71-3.26l7.3-9.27h-6.13q-1.88,0-1.88-2.12h10.84c0,2.28-.02,2.4-.67,3.21l-7.61,9.44h6.51q2.04,0,2.04,2h-11.13Z"/>
        <path class="cls-2" d="m339.8,127.34l-.48-1.31h-7.16l-.48,1.31c-.52,1.52-.52,1.54-3.19,1.54l4.85-12.98c.62-1.66.67-1.66,2.38-1.66h1.64l5.63,14.64q-2.64,0-3.21-1.54Zm-4.06-11.44l-2.95,8.3h5.9l-2.95-8.3Z"/>
        <path class="cls-2" d="m353.04,128.89q-2.47,0-2.47-2.09v-10.44q0-2.07,2.47-2.07h5.61q2.07,0,2.07,2.07h-7.68v4.07h4.94q2.02,0,2.02,2.02h-6.96v4.35h5.44q2.24,0,2.24,2.09h-7.68Z"/>
        <path class="cls-2" d="m374.65,123.8h-2.95v5.09q-2.5,0-2.5-2.09v-10.46q0-2.04,2.5-2.04h2.78c5.59,0,6.06,2.71,6.06,4.73s-.29,4.78-5.9,4.78Zm-.1-7.46h-2.85v5.47h2.92q3.35,0,3.35-2.78c0-1.24-.33-2.69-3.42-2.69Z"/>
        <path class="cls-2" d="m389.79,127.32l-3.78-4.3c-.52-.59-.33-1.64.59-1.64h1.76q3.38,0,3.38-2.57c0-1.14-.43-2.47-3.42-2.47h-2.81v12.55q-2.5,0-2.5-2.09v-10.46q0-2.04,2.5-2.04h2.69c5.52,0,6.09,2.64,6.09,4.52,0,3.61-2.62,4.47-5.4,4.47l5.9,5.61c-3.4,0-3.47.17-4.99-1.57Z"/>
        <path class="cls-2" d="m403.1,129.05c-5.61,0-6.94-3.47-6.94-7.46s1.35-7.49,6.94-7.49,6.97,3.5,6.97,7.51-1.31,7.44-6.97,7.44Zm0-12.86q-4.37,0-4.37,5.4c0,3,.76,5.4,4.37,5.4q4.42,0,4.42-5.37c0-3.02-.74-5.42-4.42-5.42Z"/>
        <path class="cls-2" d="m419.41,116.36h-2.21v12.53q-2.45,0-2.45-2.02v-10.51h-4.18q0-2.07,1.83-2.07h9.01q0,2.07-2,2.07Z"/>
        <path class="cls-2" d="m425.61,128.89q-2.47,0-2.47-2.09v-10.44q0-2.07,2.47-2.07h5.61q2.07,0,2.07,2.07h-7.68v4.07h4.94q2.02,0,2.02,2.02h-6.96v4.35h5.44q2.24,0,2.24,2.09h-7.68Z"/>
        <path class="cls-2" d="m434.97,128.89c0-2.42.02-2.4.71-3.26l7.3-9.27h-6.13q-1.88,0-1.88-2.12h10.84c0,2.28-.02,2.4-.67,3.21l-7.61,9.44h6.51q2.04,0,2.04,2h-11.13Z"/>
        <path class="cls-2" d="m448.45,126.89v-12.6q2.5,0,2.5,1.9v12.7q-2.5,0-2.5-2Z"/>
        <path class="cls-2" d="m460.29,129.05c-5.61,0-6.94-3.47-6.94-7.46s1.35-7.49,6.94-7.49,6.97,3.5,6.97,7.51-1.31,7.44-6.97,7.44Zm0-12.86q-4.37,0-4.37,5.4c0,3,.76,5.4,4.37,5.4q4.42,0,4.42-5.37c0-3.02-.74-5.42-4.42-5.42Z"/>
        <path class="cls-2" d="m481.66,128.89q-1.76,0-2.81-1.62l-6.56-9.96v11.58q-2.52,0-2.52-2.02v-12.62h1.31q1.92,0,2.88,1.5l6.56,10.01v-9.75q0-1.76,2.52-1.76v14.64h-1.38Z"/>
        <path class="cls-2" d="m488.55,128.89q-2.47,0-2.47-2.09v-10.44q0-2.07,2.47-2.07h5.61q2.07,0,2.07,2.07h-7.68v4.07h4.94q2.02,0,2.02,2.02h-6.96v4.35h5.44q2.24,0,2.24,2.09h-7.68Z"/>
      </g>
    </g>
  </g>
</svg>